<?xml version="1.0" standalone="no"?>
<!DOCTYPE svg PUBLIC "-//W3C//DTD SVG 20010904//EN"
 "http://www.w3.org/TR/2001/REC-SVG-20010904/DTD/svg10.dtd">
<svg version="1.0" xmlns="http://www.w3.org/2000/svg"
 width="200.000000pt" height="200.000000pt" viewBox="0 0 200.000000 200.000000"
 preserveAspectRatio="xMidYMid meet">

<g transform="translate(0.000000,200.000000) scale(0.100000,-0.100000)"
fill="#000000" stroke="none">
<path d="M340 1317 c0 -2 62 -145 138 -318 l138 -314 60 -3 60 -3 118 271 c65
148 120 270 122 270 1 0 37 -47 79 -105 l76 -106 -23 -32 c-12 -18 -66 -92
-120 -164 l-98 -133 68 0 68 0 84 120 c47 66 87 120 90 120 3 0 44 -54 90
-120 l85 -120 68 0 68 0 -22 33 c-13 17 -68 92 -122 165 l-98 133 23 32 c12
18 59 82 103 142 45 61 85 116 89 123 5 9 -8 12 -56 12 l-63 0 -78 -110 c-43
-61 -81 -110 -85 -109 -4 0 -42 50 -85 110 l-78 110 -71 -3 -71 -3 -106 -242
c-58 -134 -108 -243 -111 -243 -3 0 -52 111 -110 245 l-105 245 -62 0 c-35 0
-63 -2 -63 -3z"/>
<path d="M1605 785 c-14 -13 -25 -33 -25 -45 0 -27 43 -70 70 -70 12 0 32 11
45 25 14 13 25 34 25 45 0 12 -11 32 -25 45 -13 14 -33 25 -45 25 -11 0 -32
-11 -45 -25z"/>
</g>
</svg>
